<svg xmlns="http://www.w3.org/2000/svg" width="230" height="65" viewBox="0 0 230 65">
  <g id="Group_42" data-name="Group 42" transform="translate(-261.31 -726.869)">
    <rect id="Rectangle_48" data-name="Rectangle 48" width="230" height="65" rx="10" transform="translate(261.31 726.869)" fill="#7f3e28"/>
    <g id="Group_39" data-name="Group 39" transform="translate(265.78 734.735)">
      <g id="Group_33" data-name="Group 33" transform="translate(36.843 16.164)">
        <path id="Path_53" data-name="Path 53" d="M385.6,810.112a8.207,8.207,0,0,0,1.472,1.06,5.959,5.959,0,0,0,1.187.531.162.162,0,0,1,.116.035.668.668,0,0,0,.415.084.551.551,0,0,0,.492-.213.889.889,0,0,1,.175-.183,2.314,2.314,0,0,0,.534-.717,2.72,2.72,0,0,0,.308-.841,5.369,5.369,0,0,1,.753-1.828,5.069,5.069,0,0,1,.6-.611c.016,0,.069.046.117.108a4.1,4.1,0,0,0,.966.7,8.168,8.168,0,0,0,1.389.521,3.613,3.613,0,0,0,1.423,0,1.956,1.956,0,0,0,1.031-.413,5.465,5.465,0,0,0,1.662-2.849,6.821,6.821,0,0,0,.2-.879,2.473,2.473,0,0,0-.015-.878,5.734,5.734,0,0,0-.454-1.571,4.887,4.887,0,0,0-2.133-2.567,7.788,7.788,0,0,0-2.239-.793,12.022,12.022,0,0,0-1.678-.046,12.193,12.193,0,0,0-2.874.656,4.046,4.046,0,0,0-.767.509,2.519,2.519,0,0,1-.383.274,2.843,2.843,0,0,0-.979.787,1.866,1.866,0,0,0-.309,1.609,1.778,1.778,0,0,0,.225.748,3.854,3.854,0,0,0,1.434,1.4l.345.19-.1.152a4.375,4.375,0,0,1-1.181,1.137,4.047,4.047,0,0,1-1.105.487,2.474,2.474,0,0,0-1.321.771,1.236,1.236,0,0,0-.3.859c0,.141,0,.272,0,.292a.836.836,0,0,0,.111.188c.059.083.17.265.246.4A3.77,3.77,0,0,0,385.6,810.112Zm-.72-1.443-.078-.124a1.458,1.458,0,0,1,0-.234,1.035,1.035,0,0,1,.27-.695,1.571,1.571,0,0,1,.761-.4,6.308,6.308,0,0,0,1.858-1.011,5,5,0,0,0,1.286-1.29,2.236,2.236,0,0,0,.46-.814.968.968,0,0,0-.022-.807c-.056-.089-.092-.113-.155-.1-.106.018-.129.069-.139.3a1.937,1.937,0,0,1-.186.718.651.651,0,0,1-.19-.148c-.088-.084-.324-.28-.526-.435-.48-.368-.624-.551-.682-.866-.039-.215-.036-.246.035-.351a1.21,1.21,0,0,1,.723-.363,2.437,2.437,0,0,1,.719,0c.121.016.045-.087-.09-.12a1.6,1.6,0,0,0-.8.019,1.055,1.055,0,0,0-.535.227,1.038,1.038,0,0,0-.251.247,1.009,1.009,0,0,0-.033.369,1.342,1.342,0,0,0,.73,1.144l.486.3a2.447,2.447,0,0,0,.29.163c.069.024.069.027.018.128-.1.2-.127.2-.411.036a3.059,3.059,0,0,1-1.558-1.768,2.8,2.8,0,0,1,.022-.843,2.586,2.586,0,0,1,.419-.853,3.381,3.381,0,0,1,.815-.609.585.585,0,0,0,.257-.23c.1-.154.142-.18.493-.34l.783-.36a6.352,6.352,0,0,1,3.345-.463,6.593,6.593,0,0,1,2.249.478,8.993,8.993,0,0,1,1.335,1.094,5.938,5.938,0,0,1,1.209,2.011,3.594,3.594,0,0,1,.317,1.065,2.188,2.188,0,0,1,.054.87,6.936,6.936,0,0,1-1.045,2.6,3.131,3.131,0,0,1-.693.8,2.048,2.048,0,0,1-1.194.5,2.127,2.127,0,0,1-1.072-.019,3.737,3.737,0,0,1-1.68-.683,2.93,2.93,0,0,1-.634-.567,4.848,4.848,0,0,1,1.366-.81,1.663,1.663,0,0,1,.722.15c.265.107.329.111.313.024-.028-.148-.381-.317-.763-.365a1.525,1.525,0,0,0-.628.054,2.236,2.236,0,0,0-.983.447,10.232,10.232,0,0,0-1.069,1.3,7.553,7.553,0,0,0-.655,1.625,4,4,0,0,1-.4.983c-.3.51-.453.709-.651.816a.86.86,0,0,1-.637.087.552.552,0,0,0-.213-.051,4.181,4.181,0,0,1-1.4-.7A9.137,9.137,0,0,1,384.878,808.669Z" transform="translate(-384.595 -798.751)" fill="#f1f1ed"/>
        <path id="Path_54" data-name="Path 54" d="M401.258,811.957c.048-.3-.061-.674-.182-.629-.062.024-.071.077-.078.455-.006.348,0,.365.059.4C401.147,812.236,401.229,812.142,401.258,811.957Z" transform="translate(-395.5 -807.111)" fill="#f1f1ed"/>
        <path id="Path_55" data-name="Path 55" d="M389.308,826.978a4.489,4.489,0,0,1,.8,1.452.323.323,0,0,1-.027.163c-.089.188.118.231.238.049.057-.086.061-.14.029-.38a4.3,4.3,0,0,0-1.708-2.454c-.889-.707-1.57-.819-1.792-.293a.525.525,0,0,0,.088.514c.049.054.1.1.12.1s.012-.112-.01-.241c-.037-.212-.033-.246.034-.333.088-.115.135-.126.327-.077A5.566,5.566,0,0,1,389.308,826.978Z" transform="translate(-386.073 -816.328)" fill="#f1f1ed"/>
        <path id="Path_56" data-name="Path 56" d="M404.319,813.4c-.021-.125-.043-.12-.156.036-.1.137-.1.242-.011.26S404.341,813.527,404.319,813.4Z" transform="translate(-397.554 -808.434)" fill="#f1f1ed"/>
        <path id="Path_57" data-name="Path 57" d="M398.5,804.269c.019-.167-.012-.185-.126-.071a.184.184,0,0,0-.052.147c.013.077.026.085.122.077C398.465,804.42,398.49,804.352,398.5,804.269Z" transform="translate(-393.721 -802.325)" fill="#f1f1ed"/>
        <path id="Path_58" data-name="Path 58" d="M405.817,814.77a2.98,2.98,0,0,1-1-.087,5.711,5.711,0,0,1-1.032-.511c-.139-.1-.265-.112-.249-.021.011.061.132.146.6.42a2.574,2.574,0,0,0,1.086.4c1.316.194,2.006-.531,1.527-1.605a10.329,10.329,0,0,0-1.146-1.734,8.007,8.007,0,0,0-2.431-1.876c-.879-.453-1.374-.646-1.461-.569-.064.057,0,.109.214.177a10.943,10.943,0,0,1,2.2,1.171,6.231,6.231,0,0,1,1.4,1.368,9.1,9.1,0,0,1,.915,1.6C406.725,814.186,406.493,814.653,405.817,814.77Z" transform="translate(-395.962 -805.682)" fill="#f1f1ed"/>
        <path id="Path_59" data-name="Path 59" d="M409.611,819.123c-.011-.066-.2-.147-.5-.214a1.342,1.342,0,0,0-.956.062c-.125.117-.06.148.251.121a3.533,3.533,0,0,1,.685.028C409.49,819.173,409.62,819.174,409.611,819.123Z" transform="translate(-400.219 -812.12)" fill="#f1f1ed"/>
        <path id="Path_60" data-name="Path 60" d="M407.174,816.143c.232-.13.169-.221-.119-.169a.822.822,0,0,0-.455.284c-.124.176.017.211.263.065C406.952,816.271,407.091,816.189,407.174,816.143Z" transform="translate(-399.196 -810.193)" fill="#f1f1ed"/>
        <path id="Path_61" data-name="Path 61" d="M407.964,806.226a.581.581,0,0,0-.409.281c-.089.135-.1.282-.028.313a.633.633,0,0,0,.222-.161C408.075,806.348,408.13,806.238,407.964,806.226Z" transform="translate(-399.81 -803.721)" fill="#f1f1ed"/>
        <path id="Path_62" data-name="Path 62" d="M419.041,821.188c.134-.046.186-.1.143-.148s-.133-.023-.209.052C418.873,821.193,418.9,821.236,419.041,821.188Z" transform="translate(-407.414 -813.556)" fill="#f1f1ed"/>
        <path id="Path_63" data-name="Path 63" d="M416.619,814.413a1.02,1.02,0,0,1-.211.522l-.207.276c-.054.073-.058.1-.018.132.12.1.357-.056.546-.365a.493.493,0,0,0,.024-.514C416.681,814.333,416.632,814.314,416.619,814.413Z" transform="translate(-405.579 -809.123)" fill="#f1f1ed"/>
        <path id="Path_64" data-name="Path 64" d="M414.1,812.381c-.043.182-.037.228.032.241.146.029.268-.371.166-.543-.028-.047-.058-.084-.067-.083A1.3,1.3,0,0,0,414.1,812.381Z" transform="translate(-404.195 -807.558)" fill="#f1f1ed"/>
        <path id="Path_65" data-name="Path 65" d="M402.355,804.782c-.018-.1-.206,0-.323.174s-.119.3-.007.278A.878.878,0,0,0,402.355,804.782Z" transform="translate(-396.13 -802.734)" fill="#f1f1ed"/>
      </g>
      <g id="Group_34" data-name="Group 34" transform="translate(29.477 12.706)">
        <path id="Path_66" data-name="Path 66" d="M367.8,792.72c.118.187.229.379.355.561.337.485.288.777-.238,1.064-.415.225-.854.4-1.343.633a5.131,5.131,0,0,0-.935-2.256c-.078.16-.139.29-.2.418a1.794,1.794,0,0,1-1.064.89,1.1,1.1,0,0,1-1.215-.277,1.91,1.91,0,0,1-.523-1.664,4.442,4.442,0,0,1,3.086-3.531,4.651,4.651,0,0,1,2.278-.073,3.22,3.22,0,0,1,2.369,2.542,1.506,1.506,0,0,1-1,1.695A1.987,1.987,0,0,1,367.8,792.72Zm.516-.8-.02-.1a2.749,2.749,0,0,0,.281-.18c.194-.16.233-.382.087-.506-.175-.148-.342-.07-.477.065a1.125,1.125,0,0,0-.313.8.521.521,0,0,0,.479.583,1.6,1.6,0,0,0,1.407-.413.882.882,0,0,0,.288-.54,3.273,3.273,0,0,0-.181-1.147,2.808,2.808,0,0,0-2.057-1.724,4.119,4.119,0,0,0-2.085.1,4.215,4.215,0,0,0-2.808,3.352,1.6,1.6,0,0,0,.548,1.451.827.827,0,0,0,.429.19,1.515,1.515,0,0,0,1.438-1.179.534.534,0,0,0-.194-.57.449.449,0,0,0-.548-.022.707.707,0,0,0-.31.63c.007.289.3.13.444.23-.327.231-.478.209-.605-.052a.887.887,0,0,1,.392-1.057.74.74,0,0,1,.978.285,1.523,1.523,0,0,0,.224.313,3.022,3.022,0,0,1,.909,1.7c.029.151.063.3.106.506a6.091,6.091,0,0,0,1.394-.883,2.468,2.468,0,0,1-.312-.412,3.666,3.666,0,0,1-.36-.949,1.586,1.586,0,0,1,.7-1.477.478.478,0,0,1,.6-.026.513.513,0,0,1,.264.494.5.5,0,0,1-.371.469C368.533,791.886,368.422,791.9,368.314,791.923Z" transform="translate(-362.613 -788.373)" fill="#f1f1ed"/>
        <path id="Path_67" data-name="Path 67" d="M372.894,794.3a1.029,1.029,0,0,1,.254-.758C373.255,793.861,373.04,794.066,372.894,794.3Z" transform="translate(-369.442 -791.808)" fill="#f1f1ed"/>
        <path id="Path_68" data-name="Path 68" d="M377.36,792.081a.8.8,0,0,1-.786-.331A1.653,1.653,0,0,1,377.36,792.081Z" transform="translate(-371.896 -790.618)" fill="#f1f1ed"/>
        <path id="Path_69" data-name="Path 69" d="M372.266,793.2l-.219.64-.1-.028.187-.65Z" transform="translate(-368.823 -791.557)" fill="#f1f1ed"/>
        <path id="Path_70" data-name="Path 70" d="M379.421,791.973l-.23-.192.062-.072.227.2Z" transform="translate(-373.636 -790.59)" fill="#f1f1ed"/>
      </g>
      <g id="Group_35" data-name="Group 35" transform="translate(47.772 9.888)">
        <path id="Path_71" data-name="Path 71" d="M420.654,782.77c.089.117.173.237.267.349.251.3.235.5-.095.715-.26.173-.539.317-.849.5a3.392,3.392,0,0,0-.748-1.433c-.042.11-.075.2-.11.287a1.188,1.188,0,0,1-.65.649.729.729,0,0,1-.817-.112,1.266,1.266,0,0,1-.442-1.067,2.941,2.941,0,0,1,1.829-2.508,3.076,3.076,0,0,1,1.5-.181,2.132,2.132,0,0,1,1.711,1.538,1,1,0,0,1-.562,1.176A1.315,1.315,0,0,1,420.654,782.77Zm.294-.555-.019-.064a1.75,1.75,0,0,0,.175-.135c.119-.117.131-.265.028-.339-.124-.088-.23-.026-.311.07a.744.744,0,0,0-.159.548.345.345,0,0,0,.35.356,1.058,1.058,0,0,0,.9-.355.582.582,0,0,0,.159-.373,2.169,2.169,0,0,0-.186-.746,1.859,1.859,0,0,0-1.457-1.016,2.719,2.719,0,0,0-1.369.186,2.789,2.789,0,0,0-1.656,2.374,1.059,1.059,0,0,0,.446.925.546.546,0,0,0,.294.1,1,1,0,0,0,.88-.861.353.353,0,0,0-.161-.365.3.3,0,0,0-.363.017.469.469,0,0,0-.168.433c.021.19.2.068.307.126-.2.171-.3.166-.4,0a.587.587,0,0,1,.2-.72.49.49,0,0,1,.661.131,1.016,1.016,0,0,0,.166.194,2,2,0,0,1,.7,1.068c.028.1.059.2.1.327.3-.245.651-.36.867-.664a1.618,1.618,0,0,1-.229-.253,2.438,2.438,0,0,1-.293-.6,1.051,1.051,0,0,1,.376-1.015.317.317,0,0,1,.391-.052.34.34,0,0,1,.2.31.334.334,0,0,1-.218.331C421.089,782.177,421.017,782.193,420.947,782.215Z" transform="translate(-417.209 -779.936)" fill="#f1f1ed"/>
        <path id="Path_72" data-name="Path 72" d="M423.726,784.018a.681.681,0,0,1,.123-.515C423.938,783.709,423.808,783.857,423.726,784.018Z" transform="translate(-421.531 -782.308)" fill="#f1f1ed"/>
        <path id="Path_73" data-name="Path 73" d="M426.471,782.327a.529.529,0,0,1-.538-.172A1.09,1.09,0,0,1,426.471,782.327Z" transform="translate(-423.01 -781.411)" fill="#f1f1ed"/>
        <path id="Path_74" data-name="Path 74" d="M423.252,783.34l-.107.435-.065-.013.085-.439Z" transform="translate(-421.113 -782.188)" fill="#f1f1ed"/>
        <path id="Path_75" data-name="Path 75" d="M427.831,782.128l-.162-.113.037-.052.16.116Z" transform="translate(-424.164 -781.284)" fill="#f1f1ed"/>
      </g>
      <g id="Group_36" data-name="Group 36" transform="translate(21.291 19.669)">
        <path id="Path_76" data-name="Path 76" d="M338.195,815.407a7.338,7.338,0,0,0,.065,1.413,4.627,4.627,0,0,0,.863,1.724,3.066,3.066,0,0,0,1.934,1.4,2.156,2.156,0,0,0,1.932-.862c.222-.342.245-.641.066-.845a.275.275,0,0,1-.069-.263c.028-.205.133-.357.221-.319a3.173,3.173,0,0,1,.651.825,4.965,4.965,0,0,1,.554,1.536,3.741,3.741,0,0,0,.108.5.175.175,0,0,1,.009.129c-.05.115.051.334.216.47a.99.99,0,0,0,.517.222,2.669,2.669,0,0,0,.913.109,3.854,3.854,0,0,0,2.035-.765,5.589,5.589,0,0,0,1.545-1.691,2.773,2.773,0,0,0,.474-1.86c-.038-.2-.042-.206-.208-.271a5.8,5.8,0,0,1-.549-.285c-.209-.121-.6-.341-.858-.491a8,8,0,0,1-.745-.476,3.575,3.575,0,0,1-1.125-1.471l-.1-.261.124-.127a2.839,2.839,0,0,1,.937-.533c.558-.219.7-.386.78-.908a1.588,1.588,0,0,0-.249-1.233,2.686,2.686,0,0,0-.777-.918,8.4,8.4,0,0,0-1.706-.711,6.163,6.163,0,0,0-1.637-.2,6.849,6.849,0,0,0-1.528.4,11.658,11.658,0,0,0-1.33.756c-.1.068-1.111,1.014-1.32,1.233-.17.179-.706.84-.8.983A6.529,6.529,0,0,0,338.195,815.407Zm4.63,2.255a1.429,1.429,0,0,0-.1.308c-.013.128-.06.135-.269.043-.271-.119-.382-.31-.3-.51s.3-.246.6-.119l.162.069Zm7.169-.432a2.4,2.4,0,0,1,0,.421,3.411,3.411,0,0,1-.752,1.669,4.388,4.388,0,0,1-1.705,1.393,2.992,2.992,0,0,1-1.159.324,2.442,2.442,0,0,1-1.032-.105c-.481-.128-.5-.145-.381-.344a3.662,3.662,0,0,1,.572-.677,16.085,16.085,0,0,1,2.495-1.893,10.041,10.041,0,0,1,1.681-.835l.259-.1ZM347.169,813a.536.536,0,0,1,.109.156,1.991,1.991,0,0,1-.238.137,2.209,2.209,0,0,0-.346.225l-.12.106-.011-.17a.733.733,0,0,1,.258-.612C346.944,812.791,347.021,812.826,347.169,813Zm-6.785-1.4a8.892,8.892,0,0,1,1.444-1.208,4.907,4.907,0,0,1,1.588-.784,2.932,2.932,0,0,1,1.463-.115,5.616,5.616,0,0,1,1.622.463,2.944,2.944,0,0,1,1.677,1.82,1.884,1.884,0,0,1-.065.826c-.1.224-.478.432-.653.356a.664.664,0,0,1-.184-.159.78.78,0,0,0-.274-.2.327.327,0,0,0-.33-.011.857.857,0,0,0-.463.828,3.056,3.056,0,0,0,.571,1.455,5.414,5.414,0,0,0,.971.979,13.122,13.122,0,0,0,1.348.8c.151.079.327.178.392.22l.116.076-.2.1a2.2,2.2,0,0,1-.717.293c-.012-.018-.238-.188-.5-.378a11.588,11.588,0,0,1-1.436-1.24,5.9,5.9,0,0,1-1.172-2.139c-.059-.324-.106-.463-.163-.487-.232-.1.074.97.484,1.691a8.181,8.181,0,0,0,1.7,2.26,3.312,3.312,0,0,0,.525.316.855.855,0,0,1,.277.163,4.223,4.223,0,0,1-.443.3c-.237.146-.6.386-.8.532l-.82.59c-.248.179-.5.361-.554.406l-.1.081-.142-.382a7.507,7.507,0,0,0-1.855-2.528c-.271-.157-.231-.048.113.311a4.292,4.292,0,0,1,.836,1.106,12.165,12.165,0,0,1,.654,1.484l.085.265-.165.159c-.09.087-.227.234-.3.327s-.149.154-.161.136a2.526,2.526,0,0,1-.068-.4,5.512,5.512,0,0,0-.393-1.427c-.383-.954-.814-1.366-1.555-1.485a.788.788,0,0,0-.749.149c-.416.386-.1,1.034.526,1.092a1.2,1.2,0,0,1,.269.052c.285.123.048.6-.458.932a1.7,1.7,0,0,1-.974.311,1.467,1.467,0,0,1-1.142-.388,6.072,6.072,0,0,1-1.47-1.866,5.115,5.115,0,0,1-.084-2.906,6.481,6.481,0,0,1,.613-1.48A8.471,8.471,0,0,1,340.383,811.6Z" transform="translate(-338.185 -809.245)" fill="#f1f1ed"/>
        <path id="Path_77" data-name="Path 77" d="M340.448,822.629a3.186,3.186,0,0,0-.084.667c.007.218.021.263.093.294.1.044.118.016.187-.335a9.82,9.82,0,0,1,.508-1.751,3.339,3.339,0,0,0,.207-.614c-.06-.026-.176.145-.494.73A2.728,2.728,0,0,0,340.448,822.629Z" transform="translate(-339.634 -816.986)" fill="#f1f1ed"/>
        <path id="Path_78" data-name="Path 78" d="M352.167,829.586a.155.155,0,0,0,.092.014c.051-.02,0-.128-.058-.131C352.121,829.466,352.095,829.555,352.167,829.586Z" transform="translate(-347.453 -822.692)" fill="#f1f1ed"/>
        <path id="Path_79" data-name="Path 79" d="M360.285,814.636c-.028.064,0,.092.234.232a.524.524,0,0,1,.212.292.724.724,0,0,0,.129.235c.1.043.124-.253.036-.444C360.778,814.694,360.354,814.476,360.285,814.636Z" transform="translate(-352.874 -812.793)" fill="#f1f1ed"/>
        <path id="Path_80" data-name="Path 80" d="M344.186,831.22c-.042.154.34.464.611.5.087.01.154.009.15,0a5.247,5.247,0,0,0-.657-.539C344.224,831.148,344.2,831.156,344.186,831.22Z" transform="translate(-342.173 -823.817)" fill="#f1f1ed"/>
        <path id="Path_81" data-name="Path 81" d="M363.67,814.053c-.027-.068-.125-.117-.171-.085s.016.169.092.2S363.7,814.14,363.67,814.053Z" transform="translate(-355.006 -812.379)" fill="#f1f1ed"/>
        <path id="Path_82" data-name="Path 82" d="M358.676,816.186c-.032.075.064.18.23.252.135.058.183,0,.1-.124C358.885,816.134,358.725,816.071,358.676,816.186Z" transform="translate(-351.805 -813.822)" fill="#f1f1ed"/>
        <path id="Path_83" data-name="Path 83" d="M345.615,828.774a.119.119,0,0,0,.15.125c.1-.03.1-.063-.007-.136S345.618,828.688,345.615,828.774Z" transform="translate(-343.125 -822.185)" fill="#f1f1ed"/>
        <path id="Path_84" data-name="Path 84" d="M345.557,814.227a7.378,7.378,0,0,1,3.628-1.609.553.553,0,0,0,.237-.066c.034-.079-.275-.1-.731-.046a4.792,4.792,0,0,0-1.455.337,4.482,4.482,0,0,0-1.258.727,9.838,9.838,0,0,0-.935.87c-.008.019.02.043.061.055C345.161,814.51,345.282,814.438,345.557,814.227Z" transform="translate(-342.744 -811.394)" fill="#f1f1ed"/>
        <path id="Path_85" data-name="Path 85" d="M344.51,836.434a.838.838,0,0,0,.658.175c.075-.023.132-.054.126-.069A1.345,1.345,0,0,0,345,836.4a1.288,1.288,0,0,1-.46-.271.8.8,0,0,0-.234-.164C344.134,835.96,344.266,836.262,344.51,836.434Z" transform="translate(-342.203 -827.012)" fill="#f1f1ed"/>
      </g>
      <g id="Group_37" data-name="Group 37" transform="translate(0 0)">
        <path id="Path_86" data-name="Path 86" d="M308.065,750.677a3.676,3.676,0,0,1,4.4,1.094c.929,1.12,1.113,2.618,1.523,3.969,3.727-1.124,7.7-2,11.581-1.21a15.588,15.588,0,0,1,6.057,2.661c-11.321,5.412-22.614,10.893-33.953,16.276.079-5.221,3.356-9.78,7.4-12.805a32.941,32.941,0,0,0,3.011-2.294c-.432-1.105-1.43-2.009-1.739-3.208C305.915,753.536,306.437,751.429,308.065,750.677Z" transform="translate(-289.955 -750.342)" fill="#f1f1ed"/>
        <path id="Path_87" data-name="Path 87" d="M277.9,827.885c16.574.013,33.155-.057,49.729.033-.127,1.079-.188,2.161-.275,3.244,1.206-.01,2.409-.007,3.619-.023-.077,1.434-.225,3.13-1.572,3.974-.962.778-2.249.58-3.388.536a5.065,5.065,0,0,0-.674,1.434c-.881,3.247-1.706,6.514-2.644,9.748a6.16,6.16,0,0,1-2.8,3.854,7.344,7.344,0,0,1-3.5.741q-13.918-.005-27.833,0a5.818,5.818,0,0,1-4.326-1.582c-1.464-1.367-1.722-3.445-2.249-5.271-.915-3.328-1.612-6.719-2.661-10-.617.4-1.3,1.26-2.118.821a5.269,5.269,0,0,1-2.56-4.142c1.159-.01,2.322-.037,3.478-.137C278.07,830.036,277.973,828.961,277.9,827.885Z" transform="translate(-274.649 -802.022)" fill="#f1f1ed"/>
      </g>
      <g id="Group_38" data-name="Group 38" transform="translate(39.976 8.963)">
        <path id="Path_88" data-name="Path 88" d="M399.273,784.622c.036,0,.074-.11.048-.137s-.111.088-.094.115A.058.058,0,0,0,399.273,784.622Z" transform="translate(-397.455 -782.032)" fill="#f1f1ed"/>
        <path id="Path_89" data-name="Path 89" d="M398.1,778.642a3.017,3.017,0,0,1,1.114.352,2.082,2.082,0,0,0,.206.106c.089,0-.124-.215-.305-.313a3.563,3.563,0,0,0-.747-.264,3.261,3.261,0,0,0-.895-.011c-.307.064-.647.305-.506.359a1.216,1.216,0,0,0,.294-.079A2.175,2.175,0,0,1,398.1,778.642Z" transform="translate(-395.934 -778.046)" fill="#f1f1ed"/>
        <path id="Path_90" data-name="Path 90" d="M394.46,780.412c-.407.246-.488.31-.511.4a1.572,1.572,0,0,0,.2.672,2.608,2.608,0,0,0,.584.754,2.229,2.229,0,0,0,1.018.583c.319.086.491.059.627-.095.061-.07.09-.154.2-.588.069-.278.171-.666.226-.861s.108-.386.117-.425a1.555,1.555,0,0,1,.2-.414.27.27,0,0,1,.087.069c.072.075.072.095,0,.285a.861.861,0,0,0,.048.611.519.519,0,0,0,.655.253,1.574,1.574,0,0,0,.619-.319,1.556,1.556,0,0,0,.616-.951,2.1,2.1,0,0,0,.074-.529,1.256,1.256,0,0,0-.187-.82,3.359,3.359,0,0,0-1.73-1.458,3.14,3.14,0,0,0-.765-.307,2.2,2.2,0,0,0-1.113-.065,1.8,1.8,0,0,0-1.161,1.089,1.674,1.674,0,0,0-.023.834,1.315,1.315,0,0,0,.363.559.364.364,0,0,0,.41.076.478.478,0,0,0,.151-.291c0-.064-.009-.064.151,0l.131.05-.1.142A2.779,2.779,0,0,1,394.46,780.412Zm1.76,2.262a.516.516,0,0,1-.292,0,2.561,2.561,0,0,1-1.218-.731,1.983,1.983,0,0,1-.558-.918c-.011-.1-.008-.117.019-.1a15.139,15.139,0,0,1,1.415,1.016C395.983,782.283,396.275,782.619,396.219,782.674Zm1.026-2.325c-.056,0-.033-.042.03-.053a.412.412,0,0,1,.252.05c.016.016.017.051,0,.1s-.039.08-.075.086-.052,0-.052-.022A.318.318,0,0,0,397.245,780.349Zm-2.049-1.086c-.071,0-.072-.007-.02-.1a.2.2,0,0,1,.262-.089c.076.029.089.045.095.115a.5.5,0,0,1-.027.176l-.034.095-.026-.066A.289.289,0,0,0,395.2,779.263Zm.435.349a.55.55,0,0,0-.063-.7c-.055-.043-.088-.051-.2-.042-.162.012-.252.082-.339.266a.389.389,0,0,0-.041.264c.013.135.01.15-.047.206-.073.073-.1.075-.2.016a1.435,1.435,0,0,1-.353-1.256,1.464,1.464,0,0,1,.855-.887,2.273,2.273,0,0,1,1.126-.022,2.126,2.126,0,0,1,.775.229,3.007,3.007,0,0,1,1.642,1.39,1.674,1.674,0,0,1,.267,1.062,1.511,1.511,0,0,1-.584,1.067,1.175,1.175,0,0,1-.789.322c-.227-.022-.336-.173-.336-.466,0-.222.04-.311.148-.333a.324.324,0,0,0,.207-.486c-.053-.062-.07-.067-.265-.073a.432.432,0,0,0-.488.243,2.6,2.6,0,0,0-.428,1.193c-.035.188-.085.461-.112.607a1.027,1.027,0,0,1-.07.266.02.02,0,0,1-.02-.02.5.5,0,0,0-.084-.117c-.065-.076-.079-.107-.061-.14a2.917,2.917,0,0,0,.086-.546,1.847,1.847,0,0,1,.18-.6c.072-.144.088-.255.037-.255-.144,0-.382.624-.43,1.126l-.016.17-.192-.19a6.789,6.789,0,0,0-.929-.747,2.131,2.131,0,0,1-.242-.172.836.836,0,0,1,.17-.117c.292-.173.762-.678.694-.746a.591.591,0,0,0-.169.129,5.061,5.061,0,0,1-.531.381l-.375.239-.108-.052a.363.363,0,0,1-.108-.066,2.083,2.083,0,0,1,.254-.164A2.748,2.748,0,0,0,395.631,779.612Z" transform="translate(-393.945 -777.168)" fill="#f1f1ed"/>
        <path id="Path_91" data-name="Path 91" d="M405.1,785c.062.044.1.037.109-.022s-.033-.083-.108-.083S405.027,784.957,405.1,785Z" transform="translate(-401.325 -782.309)" fill="#f1f1ed"/>
        <path id="Path_92" data-name="Path 92" d="M405.977,781.5c.165.075.174.048.032-.095-.1-.1-.155-.121-.178-.062S405.865,781.451,405.977,781.5Z" transform="translate(-401.846 -779.924)" fill="#f1f1ed"/>
        <path id="Path_93" data-name="Path 93" d="M400.27,782.617c.018.093.065.1.118.028a.145.145,0,0,0,.008-.179C400.323,782.392,400.245,782.485,400.27,782.617Z" transform="translate(-398.147 -780.673)" fill="#f1f1ed"/>
      </g>
    </g>
    <g id="Group_41" data-name="Group 41" transform="translate(334.614 745.074)">
      <g id="Group_40" data-name="Group 40">
        <path id="Path_94" data-name="Path 94" d="M488.719,819.866H503.18v4.253h-4.891v25.52H493.61v-25.52h-4.891Z" transform="translate(-488.719 -810.857)" fill="#f1f1ed"/>
        <path id="Path_95" data-name="Path 95" d="M542.646,849.639h-4.679V819.866h4.679v12.76h5.317v-12.76h4.764v29.773h-4.764v-12.76h-5.317Z" transform="translate(-521.464 -810.857)" fill="#f1f1ed"/>
        <path id="Path_96" data-name="Path 96" d="M596.21,819.866v22.968c0,2.127.936,2.892,2.424,2.892s2.424-.765,2.424-2.892V819.866h4.424v22.67c0,4.764-2.382,7.486-6.975,7.486s-6.976-2.722-6.976-7.486v-22.67Z" transform="translate(-557.079 -810.857)" fill="#f1f1ed"/>
        <path id="Path_97" data-name="Path 97" d="M645.857,807.1l3.785-4.721h4.211l3.785,4.721h-4l-1.914-2.339-1.871,2.339Z" transform="translate(-593.2 -799.227)" fill="#f1f1ed"/>
        <path id="Path_98" data-name="Path 98" d="M650.615,819.866h-6.848L639,849.639h4.3l.808-5.4h5.742l.808,5.4h4.721ZM644.7,840.2l2.255-15.057,2.254,15.057Z" transform="translate(-588.643 -810.857)" fill="#f1f1ed"/>
        <path id="Path_99" data-name="Path 99" d="M674.77,792.98l2.892,4.721H674.3l-4.338-4.721Z" transform="translate(-609.229 -792.98)" fill="#f1f1ed"/>
        <path id="Path_100" data-name="Path 100" d="M698.429,828.075v21.564h-4.211V819.866h5.87l4.806,17.821V819.866h4.168v29.773h-4.806Z" transform="translate(-625.356 -810.857)" fill="#f1f1ed"/>
        <path id="Path_101" data-name="Path 101" d="M772.831,844.152l3.573-24.286h4.3l-4.594,29.773H769.13l-4.594-29.773h4.721Z" transform="translate(-672.111 -810.857)" fill="#f1f1ed"/>
        <path id="Path_102" data-name="Path 102" d="M819.245,819.866h4.679v29.773h-4.679Z" transform="translate(-708.486 -810.857)" fill="#f1f1ed"/>
        <path id="Path_103" data-name="Path 103" d="M848.039,819.923h6.422v4.253h-6.422V832.9h8.082v4.253H843.36V807.376h12.76v4.253h-8.082ZM843.573,805.8l3.785-4.721h4.211l3.786,4.721h-4l-1.914-2.339-1.871,2.339Zm7.443,33.176v3.488H847.7v-3.488Z" transform="translate(-724.521 -798.366)" fill="#f1f1ed"/>
        <path id="Path_104" data-name="Path 104" d="M886.009,819.866H900.47v4.253h-4.891v25.52H890.9v-25.52h-4.891Z" transform="translate(-752.878 -810.857)" fill="#f1f1ed"/>
      </g>
    </g>
    <text id="LẨU_NẤM" data-name="LẨU NẤM" transform="translate(334.614 746.98)" fill="#f1f1ed" font-size="17" font-family="'\#9Slide03IcielRift-Regular', '\#9Slide03 Iciel Rift'" letter-spacing="0.005em"><tspan x="0" y="0">LẨU NẤM</tspan></text>
  </g>
</svg>
